<svg xmlns="http://www.w3.org/2000/svg" xmlns:xlink="http://www.w3.org/1999/xlink" viewBox="0 0 500 500"><defs><linearGradient id="linear-gradient" x1="7711" y1="-1188.99" x2="7714.41" y2="-1187.34" gradientTransform="matrix(50.96, 0, 0, -44.95, -395818.26, -51961.25)" gradientUnits="userSpaceOnUse"><stop offset="0" stop-color="#232d56" stop-opacity="0.6"/><stop offset="0.01" stop-color="#232d57" stop-opacity="0.62"/><stop offset="0.13" stop-color="#223262" stop-opacity="0.76"/><stop offset="0.25" stop-color="#223569" stop-opacity="0.87"/><stop offset="0.41" stop-color="#223871" stop-opacity="0.94"/><stop offset="0.6" stop-color="#213974" stop-opacity="0.99"/><stop offset="1" stop-color="#203a76"/></linearGradient><linearGradient id="linear-gradient-2" x1="7820.2" y1="-1133.05" x2="7816.15" y2="-1134.02" gradientTransform="matrix(73.73, 0, 0, -123.47, -576199.69, -139685.43)" gradientUnits="userSpaceOnUse"><stop offset="0" stop-color="#fff" stop-opacity="0.2"/><stop offset="0" stop-color="#e8e8e8" stop-opacity="0"/><stop offset="0.31" stop-color="#fff" stop-opacity="0.1"/><stop offset="0.91" stop-color="#2b2b2a" stop-opacity="0.29"/><stop offset="1" stop-color="#1d1e1b" stop-opacity="0.3"/></linearGradient><linearGradient id="linear-gradient-3" x1="7810.75" y1="-1181.78" x2="7814.63" y2="-1178.74" gradientTransform="matrix(102.02, 0, 0, -55.43, -800331.64, -63651.89)" gradientUnits="userSpaceOnUse"><stop offset="0" stop-color="#1f3b75" stop-opacity="0.1"/><stop offset="0.04" stop-color="#203a75" stop-opacity="0.22"/><stop offset="0.12" stop-color="#203a75" stop-opacity="0.46"/><stop offset="0.22" stop-color="#203a75" stop-opacity="0.66"/><stop offset="0.33" stop-color="#203a75" stop-opacity="0.81"/><stop offset="0.47" stop-color="#203a75" stop-opacity="0.92"/><stop offset="0.64" stop-color="#203a75" stop-opacity="0.98"/><stop offset="1" stop-color="#203a76"/></linearGradient></defs><title>Logo_try</title><g id="Layer_16" data-name="Layer 16"><path id="Path_17" data-name="Path 17" d="M249.9,105.71a321.6,321.6,0,0,0-126.45,51c-54.36,37.93-77.64,84.38-67,121.82,11.09-21.76,30.89-43.66,59-63.29a319.55,319.55,0,0,1,116.31-49.1" fill="url(#linear-gradient)"/><g id="Group_14" data-name="Group 14"><path id="Path_18" data-name="Path 18" d="M165.28,154.63a142.46,142.46,0,0,0,70.48-23c15.18-9.95,28.57-22.89,45.22-30.11,19-8.26,40.5-8.26,61.26-8.12l25,.16Q354.28,64.29,338.34,32c-1.41,1.89-89.41,3.28-131.55-20.21,0,0-74.57,64.8-150,73,3.78,8.49,5.93,18.14,8.88,27q5.91,17.69,12,35.36,14,1.11,27.87,2.84C125.37,152.43,145.29,155.65,165.28,154.63Z" fill="#ee748f"/><path id="Path_19" data-name="Path 19" d="M338.26,31.84l.08.17S338.37,31.9,338.26,31.84Z" fill="none" stroke="#e3211d" stroke-miterlimit="10" stroke-width="1.4"/><path id="Path_20" data-name="Path 20" d="M182,246a142.49,142.49,0,0,0,70.49-23c15.17-9.95,28.57-22.88,45.22-30.1,19-8.26,40.5-8.26,61.25-8.12l44.12.29c-9.31-27.78-21.16-58.19-35.84-91.49l-25-.16c-20.77-.14-42.21-.14-61.25,8.11-16.65,7.22-30.05,20.17-45.23,30.11a142.49,142.49,0,0,1-70.49,23c-20,1-39.9-2.21-59.76-4.65q-13.87-1.73-27.87-2.84,5.55,16.11,11.23,32.17,10.77,30.47,22.1,60.74c3.76.41,7.5.83,11.24,1.29C142.07,243.79,162,247,182,246Z" fill="#eb6281"/><path id="Path_21" data-name="Path 21" d="M213.3,387.68a142.38,142.38,0,0,0,70.49-23c15.18-9.95,28.58-22.89,45.23-30.11,19-8.26,40.49-8.25,61.25-8.11l41.41.27a375.71,375.71,0,0,0-8.32-68l-52.11-.35c-20.77-.13-42.21-.14-61.26,8.12-16.65,7.22-30,20.16-45.22,30.11a142.38,142.38,0,0,1-70.49,23,300.81,300.81,0,0,1-53.69-3.89q8.85,21.43,18.29,42.6c4,9,8.16,18,12.45,27A242.52,242.52,0,0,0,213.3,387.68Z" fill="#e84067"/><path id="Path_22" data-name="Path 22" d="M431.68,326.72l-41.41-.27c-20.77-.14-42.21-.14-61.25,8.11-16.65,7.22-30,20.16-45.23,30.11a142.38,142.38,0,0,1-70.49,23,242.64,242.64,0,0,1-42-2.39,495.59,495.59,0,0,0,24.57,45.63c7.23,11.73,24.59,22.31,45.24,31A142.36,142.36,0,0,0,304,439.55c15.18-9.95,28.58-22.89,45.23-30.11,19-8.25,40.49-8.25,61.25-8.11l9.06.06a74.11,74.11,0,0,0,8.88-29.45A224.72,224.72,0,0,0,431.68,326.72Z" fill="#d5395e"/><path id="Path_23" data-name="Path 23" d="M349.18,409.44c-16.64,7.22-30,20.16-45.22,30.11a142.52,142.52,0,0,1-62.83,22.39A357.44,357.44,0,0,0,335,486.32s61.09-39.8,84.48-84.93l-9.06-.06C389.69,401.19,368.23,401.19,349.18,409.44Z" fill="#c03357"/><path id="Path_24" data-name="Path 24" d="M194.28,319.62a142.38,142.38,0,0,0,70.49-23c15.17-9.95,28.57-22.89,45.22-30.11,19-8.26,40.5-8.26,61.25-8.12l52.11.35A645.73,645.73,0,0,0,403,185.05l-44.11-.29c-20.77-.14-42.21-.14-61.25,8.12C281,200.1,267.63,213,252.46,223A142.56,142.56,0,0,1,182,246c-20,1-39.91-2.21-59.76-4.66q-5.61-.68-11.24-1.28,5.23,14,10.6,27.93,9.25,24,19,47.74A300.68,300.68,0,0,0,194.28,319.62Z" fill="#ea5175"/></g><path id="Path_25" data-name="Path 25" d="M207,13.32S132.24,77.91,56.76,86c3.75,8.51,5.88,18.16,8.81,27q11.22,33.88,23,67.59,15.65,44.6,32.46,88.75c11.66,30.43,23.81,60.68,37.06,90.45A623.22,623.22,0,0,0,195,432.41c18.27,29.83,101.78,52.4,139,55.77C333.93,488.19,383.41,355.06,207,13.32Z" fill="url(#linear-gradient-2)"/><path id="Path_26" data-name="Path 26" d="M436.49,297.31,424.75,180.45c-.51-5-5.52-6.35-9.95-2.57l-67.63,57.58c-4.61,3.92-5.79,10.9-2.3,13.5l19.26,14.39c-58.29,48.21-177.69,66.29-177.69,66.29l-36.77.47a153.65,153.65,0,0,1-44.23-9.3A87.74,87.74,0,0,1,82.52,308a137.24,137.24,0,0,1-16.83-17.26,42.86,42.86,0,0,1-11.11-20.83c-2.13-12.32,2.86-25.72,4.08-38.69a29.7,29.7,0,0,1-3,6.14q-1.65,3.66-3.08,7.41A130.83,130.83,0,0,0,48,259.38,122.49,122.49,0,0,0,44.19,286a101.84,101.84,0,0,0,9,44.64,92.5,92.5,0,0,0,47.42,47.12q1.5.65,3,1.23A164.68,164.68,0,0,0,162,388.86a98,98,0,0,0,14.82-1c116-7.42,181.2-63.67,213.76-104.77l11.73,8.77,21.92,16.39C429,311.79,437.2,304.45,436.49,297.31Z" fill="url(#linear-gradient-3)"/></g></svg>
